<svg width="434" height="310" viewBox="0 0 434 310" fill="none" xmlns="http://www.w3.org/2000/svg">
<path d="M10.3 194.605V167.005L73.5 76.6052H111.7V165.005H128.1V194.605H111.7V220.605H77.5V194.605H10.3ZM79.9 114.205L46.3 165.005H79.9V114.205ZM157.735 145.605C157.735 122.672 162.135 104.605 170.935 91.4052C179.868 78.2052 194.201 71.6052 213.935 71.6052C233.668 71.6052 247.935 78.2052 256.735 91.4052C265.668 104.605 270.135 122.672 270.135 145.605C270.135 168.805 265.668 187.005 256.735 200.205C247.935 213.405 233.668 220.005 213.935 220.005C194.201 220.005 179.868 213.405 170.935 200.205C162.135 187.005 157.735 168.805 157.735 145.605ZM236.535 145.605C236.535 132.139 235.068 121.805 232.135 114.605C229.201 107.272 223.135 103.605 213.935 103.605C204.735 103.605 198.668 107.272 195.735 114.605C192.801 121.805 191.335 132.139 191.335 145.605C191.335 154.672 191.868 162.205 192.935 168.205C194.001 174.072 196.135 178.872 199.335 182.605C202.668 186.205 207.535 188.005 213.935 188.005C220.335 188.005 225.135 186.205 228.335 182.605C231.668 178.872 233.868 174.072 234.935 168.205C236.001 162.205 236.535 154.672 236.535 145.605ZM301.887 194.605V167.005L365.087 76.6052H403.287V165.005H419.687V194.605H403.287V220.605H369.087V194.605H301.887ZM371.487 114.205L337.887 165.005H371.487V114.205Z" fill="#3F8BE9"/>
<path d="M16.3 203.605V176.005L79.5 85.6052H117.7V174.005H134.1V203.605H117.7V229.605H83.5V203.605H16.3ZM85.9 123.205L52.3 174.005H85.9V123.205ZM163.735 154.605C163.735 131.672 168.135 113.605 176.935 100.405C185.868 87.2052 200.201 80.6052 219.935 80.6052C239.668 80.6052 253.935 87.2052 262.735 100.405C271.668 113.605 276.135 131.672 276.135 154.605C276.135 177.805 271.668 196.005 262.735 209.205C253.935 222.405 239.668 229.005 219.935 229.005C200.201 229.005 185.868 222.405 176.935 209.205C168.135 196.005 163.735 177.805 163.735 154.605ZM242.535 154.605C242.535 141.139 241.068 130.805 238.135 123.605C235.201 116.272 229.135 112.605 219.935 112.605C210.735 112.605 204.668 116.272 201.735 123.605C198.801 130.805 197.335 141.139 197.335 154.605C197.335 163.672 197.868 171.205 198.935 177.205C200.001 183.072 202.135 187.872 205.335 191.605C208.668 195.205 213.535 197.005 219.935 197.005C226.335 197.005 231.135 195.205 234.335 191.605C237.668 187.872 239.868 183.072 240.935 177.205C242.001 171.205 242.535 163.672 242.535 154.605ZM307.887 203.605V176.005L371.087 85.6052H409.287V174.005H425.687V203.605H409.287V229.605H375.087V203.605H307.887ZM377.487 123.205L343.887 174.005H377.487V123.205Z" fill="#3F8BE9" fill-opacity="0.24"/>
</svg>
