<svg width="57" height="36" viewBox="0 0 57 36" fill="none" xmlns="http://www.w3.org/2000/svg">
    <g clip-path="url(#clip0_870_13613)">
        <path
            d="M28.4287 35.0913C43.8295 35.0913 56.3144 32.3805 56.3144 29.0366C56.3144 25.6927 43.8295 22.9819 28.4287 22.9819C13.0278 22.9819 0.542969 25.6927 0.542969 29.0366C0.542969 32.3805 13.0278 35.0913 28.4287 35.0913Z"
            fill="#CED2DB" />
        <path
            d="M48.4724 12.4012L39.6309 2.45244C39.2065 1.77431 38.5869 1.36432 37.9342 1.36432H18.9249C18.2722 1.36432 17.6526 1.77431 17.2282 2.45157L8.38672 12.4021V20.3934H48.4724V12.4012Z"
            stroke="#9EA5B8" strokeWidth="0.871428" />
        <path
            d="M36.8066 15.144C36.8066 13.7557 37.6728 12.6096 38.7473 12.6088H48.4724V28.2965C48.4724 30.1328 47.3221 31.6379 45.9017 31.6379H10.9574C9.537 31.6379 8.38672 30.132 8.38672 28.2965V12.6088H18.1119C19.1863 12.6088 20.0525 13.7531 20.0525 15.1414V15.1604C20.0525 16.5487 20.9283 17.6696 22.0019 17.6696H34.8572C35.9308 17.6696 36.8066 16.5383 36.8066 15.15V15.144Z"
            fill="#F9FAFC" stroke="#9EA5B8" strokeWidth="0.871428" />
    </g>
    <defs>
        <clipPath id="clip0_870_13613">
            <rect width="55.7714" height="34.8571" fill="white"
                transform="translate(0.542969 0.49292)" />
        </clipPath>
    </defs>
</svg>